<svg width="2500" height="2500" viewBox="0 0 2500 2500" fill="none" xmlns="http://www.w3.org/2000/svg">
<path d="M1250 351.562C689.082 351.562 234.375 710.088 234.375 1152.34C234.375 1438.27 424.473 1689.16 710.43 1830.83C694.873 1884.48 610.459 2175.99 607.1 2198.89C607.1 2198.89 605.078 2216.09 616.221 2222.66C627.363 2229.22 640.469 2224.12 640.469 2224.12C672.422 2219.66 1011.01 1981.83 1069.61 1940.53C1128.15 1948.82 1188.44 1953.12 1250 1953.12C1810.92 1953.12 2265.62 1594.61 2265.62 1152.34C2265.62 710.088 1810.92 351.562 1250 351.562Z" fill="black"/>
<path d="M688.477 1431.88C656.162 1431.88 629.883 1406.79 629.883 1375.93V1027.83H538.457C506.748 1027.83 480.957 1002.09 480.957 970.459C480.957 938.828 506.758 913.086 538.457 913.086H838.496C870.205 913.086 895.996 938.828 895.996 970.459C895.996 1002.09 870.195 1027.83 838.496 1027.83H747.07V1375.93C747.07 1406.79 720.791 1431.88 688.477 1431.88ZM1202.27 1431.12C1177.83 1431.12 1159.14 1421.2 1153.51 1405.24L1124.49 1329.29L945.82 1329.28L916.787 1405.28C911.172 1421.21 892.49 1431.12 868.057 1431.12C855.204 1431.14 842.5 1428.38 830.811 1423.04C814.658 1415.59 799.131 1395.1 816.924 1339.83L957.08 970.928C966.953 942.871 996.943 913.965 1035.11 913.096C1073.38 913.955 1103.37 942.871 1113.26 970.986L1253.36 1339.73C1271.19 1395.12 1255.66 1415.62 1239.51 1423.05C1227.82 1428.38 1215.12 1431.13 1202.27 1431.12C1202.26 1431.12 1202.27 1431.12 1202.27 1431.12V1431.12ZM1093.68 1225.5L1035.16 1059.24L976.631 1225.5H1093.68V1225.5ZM1347.66 1423.34C1316.69 1423.34 1291.5 1399.24 1291.5 1369.63V971.68C1291.5 939.365 1318.34 913.086 1351.32 913.086C1384.3 913.086 1411.13 939.365 1411.13 971.68V1315.92H1535.64C1566.61 1315.92 1591.8 1340.02 1591.8 1369.63C1591.8 1399.24 1566.61 1423.34 1535.64 1423.34H1347.66ZM1673.18 1431.12C1640.87 1431.12 1614.59 1404.84 1614.59 1372.53V971.68C1614.59 939.365 1640.87 913.086 1673.18 913.086C1705.5 913.086 1731.78 939.365 1731.78 971.68V1097.62L1895.25 934.141C1903.66 925.732 1915.21 921.104 1927.75 921.104C1942.38 921.104 1957.07 927.412 1968.08 938.408C1978.34 948.662 1984.46 961.855 1985.3 975.557C1986.15 989.375 1981.55 1002.04 1972.37 1011.23L1838.85 1144.74L1983.08 1335.81C1987.73 1341.94 1991.13 1348.93 1993.06 1356.39C1994.99 1363.84 1995.42 1371.6 1994.33 1379.22C1993.28 1386.84 1990.73 1394.19 1986.83 1400.82C1982.93 1407.45 1977.75 1413.24 1971.59 1417.86C1961.46 1425.56 1949.07 1429.72 1936.35 1429.69C1927.27 1429.73 1918.31 1427.65 1910.18 1423.6C1902.05 1419.56 1894.98 1413.66 1889.54 1406.4L1752.13 1224.33L1731.8 1244.66V1372.5C1731.78 1388.04 1725.6 1402.94 1714.61 1413.93C1703.62 1424.92 1688.72 1431.1 1673.18 1431.12V1431.12Z" fill="#FFE812"/>
</svg>
